<svg xmlns="http://www.w3.org/2000/svg" viewBox="0 0 64 64">
  <rect width="64" height="64" rx="12" fill="#ffffff"/>
  <path d="M19 6 C8 15 5 31 11 44" fill="none" stroke="#0f5b2f" stroke-width="3" stroke-linecap="round"/>
  <path d="M45 6 C56 15 59 31 53 44" fill="none" stroke="#0f5b2f" stroke-width="3" stroke-linecap="round"/>
  <path d="M35 5 L43 11 L40 18 L47 25 L41 33 L42 42 L35 46 L31 57 L25 49 L18 47 L20 38 L15 32 L20 26 L17 18 L25 13 Z" fill="#166534" stroke="#24442b" stroke-width="1.5" stroke-linejoin="round"/>
  <path d="M25 14 C32 20 31 25 28 31 C25 36 31 42 38 43" fill="none" stroke="#38bdf8" stroke-width="2.2" stroke-linecap="round"/>
  <g fill="#d9f99d">
    <circle cx="31" cy="17" r="1.6"/>
    <circle cx="36" cy="22" r="1.4"/>
    <circle cx="27" cy="28" r="1.4"/>
    <circle cx="34" cy="34" r="1.4"/>
    <circle cx="29" cy="41" r="1.5"/>
    <circle cx="39" cy="40" r="1.3"/>
  </g>
  <text x="32" y="61" text-anchor="middle" font-family="Georgia, serif" font-size="8" font-weight="700" fill="#0f3f21">FIGS</text>
</svg>
